<?xml version="1.0" encoding="utf-8"?>
<!-- Generator: Adobe Adobe Illustrator 24.2.0, SVG Export Plug-In . SVG Version: 6.00 Build 0)  -->
<svg version="1.1" id="Layer_1" xmlns="http://www.w3.org/2000/svg" xmlns:xlink="http://www.w3.org/1999/xlink" x="0px" y="0px"
	 width="1728px" height="1296px" viewBox="0 0 1728 1296" style="enable-background:new 0 0 1728 1296;" xml:space="preserve">
<style type="text/css">
	.st0{fill:#FFFFFF;stroke:#000000;stroke-miterlimit:10;}
	.st1{opacity:0.8392;}
	.st2{opacity:0.9412;fill:#FFFFFF;}
</style>
<path class="st0" d="M638.05,370.77"/>
<path d="M706.09,476.89c-1.56,0.65-1.38-0.42-1.22-1.67c0.03-1.32,0-2.13,0.26-3.11c3.82-12.15,5.06-25.62,0.21-36.73
	c-2.96-6.37-8.3-10.91-13.79-14.68c5.39,6.45,9.8,12.65,11.25,20.99c1.18,8.37,1.79,12.3,1.26,22.2c-0.07,3.74-1.23,7.7-0.24,11.27
	c0.2,0.88,0.11,2.45,1.28,2.36c0.6-0.11,1.12-0.53,1.63-0.89C706.52,476.72,706.3,476.81,706.09,476.89z"/>
<path class="st1" d="M672.45,496.28c-6.89,3.92-12.58,9.5-18.57,14.62c-3.86,3.19-10.38,7.61-15.79,11.96l0,0.01
	c6.41-3.25,13.09-6.18,18.85-10.53c6.11-4.82,11.01-10.97,16.9-16.04c0.8-0.73,1.59-1.46,2.39-2.18
	C674.96,494.81,673.7,495.53,672.45,496.28z"/>
<path d="M698.36,451.81c2.58,10.36,3.71,18.7-2.13,26.19c-3.16,4.44-6.37,8.86-9.79,13.03c-4.28,4.95-6.22,6.9-9.99,10.82
	c-3.34,3.44-6.96,6.79-10.81,8.96c-0.6,0.4-2.56,1.33-1.02,0.76c6.32-1.9,11.88-6.24,17.17-10.71c5.53-4.54,10.58-9.91,14.68-16.22
	c2.06-3.18,4.23-6.41,5.45-10.13C704.45,466.58,701.44,458.53,698.36,451.81z"/>
<path d="M620.1,527.17L620.1,527.17z"/>
<path class="st2" d="M850.92,454.12C850.92,454.11,850.92,454.11,850.92,454.12c0,0-0.01,0-0.02,0.02
	c-0.01,0.01-0.03,0.02-0.04,0.04c0,0.01,0,0.01-0.01,0.01c0,0.1-0.02,0.2-0.05,0.32c-0.07,0.27-0.2,0.48-0.36,0.69
	c0,0.02-0.01,0.04-0.02,0.05l0.02-0.02c0,0,0,0.01,0,0.01c0,0.03-0.03,0.06-0.05,0.08c-0.01,0.02-0.02,0.04-0.03,0.06
	c-0.02,0.02-0.02,0.04-0.04,0.06c-0.02,0.04-0.03,0.08-0.05,0.11c0,0-0.01,0.01-0.01,0.01c-0.01,0.04-0.02,0.08-0.04,0.13
	c-0.01,0.02-0.01,0.04-0.02,0.06c0-0.01,0-0.01,0,0c0,0,0,0.01,0,0.01c0.02-0.05,0.05-0.1,0,0c0,0,0,0,0,0
	c-0.01,0.01-0.01,0.03-0.02,0.03c0,0.01-0.01,0.01-0.01,0.02c-0.01,0.02-0.02,0.03-0.03,0.05c0,0.01,0,0.01-0.01,0.02
	c0,0.02,0,0.04-0.01,0.05c-0.01,0.03-0.04,0.1-0.05,0.11c0,0,0,0,0,0c-0.01,0.03-0.02,0.06-0.04,0.09
	c-0.01,0.02-0.02,0.04-0.02,0.04c-0.02,0.06-0.04,0.12-0.08,0.17c-0.02,0.04-0.05,0.09-0.07,0.12c-0.11,0.36-0.38,0.71-0.65,0.94
	c-0.27,0.23-0.54,0.37-0.84,0.46c0.24,0.17,0.47,0.13,0.69-0.07c0.19-0.1,0.35-0.31,0.49-0.55c0,0,0,0.01,0,0.01
	c0.02-0.03,0.03-0.07,0.05-0.1c0.06-0.11,0.12-0.23,0.17-0.35c0.11-0.22,0.21-0.43,0.32-0.65c0.14-0.08,0.28-0.24,0.4-0.52
	c0.21-0.34,0.36-0.94,0.4-1.46C850.92,454.16,850.92,454.14,850.92,454.12C850.92,454.13,850.92,454.13,850.92,454.12z"/>
<g>
	<g>
		<path d="M865.33,429.69c-1.36,0.03-2.34,0.59-3,1.37c0.01-0.48-0.02-1.01-0.14-1.5c-2.39,5.85-5.23,11.44-7.92,16.5
			c-0.16,0.29-0.34,0.58-0.51,0.87c0.02,0.02,0.04,0.04,0.05,0.07c-0.21,0.55-0.42,1.09-0.63,1.61c0,0.02,0.01,0.04,0.01,0.06
			c-0.01,0.05-0.01,0.09-0.02,0.14c0,0,0,0,0,0c0,0,0,0,0,0.01c-0.01,0.02-0.02,0.04-0.03,0.06c-0.01,0.03-0.03,0.05-0.05,0.08
			c0,0,0.01-0.01,0.01-0.01c-0.01,0.01-0.01,0.02-0.02,0.03c-0.01,0.02-0.01,0.04-0.02,0.06c-0.03,0.03-0.05,0.07-0.08,0.1
			c-0.02,0.02-0.05,0.03-0.08,0.05c0.01,0,0.02,0.01,0.03,0.01c-0.16,0.39-0.31,0.78-0.47,1.15c-0.01-0.01-0.02-0.02-0.03-0.04
			c0,0.01,0,0.01-0.01,0.02c0.01,0.01,0.02,0.02,0.03,0.02c-0.43,1.05-0.85,2.06-1.26,3.05c0,0,0,0,0,0
			c-0.01,0.1-0.06,0.2-0.12,0.28c-0.01,0.03-0.02,0.07-0.04,0.09c0,0,0,0,0,0c0,0.01-0.01,0.02-0.01,0.03
			c-0.02,0.05-0.04,0.1-0.06,0.15c0,0,0,0-0.01,0.01c-0.02,0.04-0.04,0.08-0.06,0.14c-0.01,0.01,0,0.01-0.01,0.02
			c0.02-0.02-0.03,0.07,0,0c-0.01,0.01-0.01,0.01-0.03,0.03c-0.01,0.01-0.03,0.02-0.04,0.04c0,0.01,0,0.01-0.01,0.01
			c0,0.1-0.02,0.2-0.05,0.32c-0.07,0.27-0.2,0.48-0.36,0.69c0,0.02-0.01,0.04-0.02,0.05l0.02-0.02c0,0,0,0.01,0,0.01
			c0,0.03-0.03,0.06-0.05,0.08c-0.01,0.02-0.02,0.04-0.03,0.06c-0.02,0.02-0.02,0.04-0.04,0.06c-0.02,0.04-0.03,0.08-0.05,0.11
			c0,0-0.01,0.01-0.01,0.01c-0.01,0.04-0.02,0.08-0.04,0.13c-0.01,0.02-0.01,0.04-0.02,0.06c0-0.01,0-0.01,0,0c0,0,0,0.01,0,0.01
			c0.02-0.05,0.05-0.1,0,0c0,0,0,0,0,0c-0.01,0.01-0.01,0.03-0.02,0.03c0,0.01-0.01,0.01-0.01,0.02c-0.01,0.02-0.02,0.03-0.03,0.05
			c0,0.01,0,0.01-0.01,0.02c0,0.02,0,0.04-0.01,0.05c-0.01,0.03-0.04,0.1-0.05,0.11c0,0,0,0,0,0c-0.01,0.03-0.02,0.06-0.04,0.09
			c-0.01,0.02-0.02,0.04-0.02,0.04c-0.02,0.06-0.04,0.12-0.08,0.17c0.02,0.01,0.03,0.02,0.05,0.02c-1.45,3.58-2.83,7.27-4.2,12.13
			c-1.08,3.5-2.42,6.92-3.29,10.48c-1.3,5.55-2.1,11.2-3.38,16.75c-0.41,1.88-0.93,3.72-1.47,5.57c-0.11-0.04-0.23-0.07-0.34-0.11
			c-0.92,3.36-1.82,6.73-2.79,10.08c-3.59,12.59-7.27,25.15-11.16,37.65c-2.49,7.8-4.91,15.62-7.64,23.33
			c-2.93,7.83-6.72,16.92-8.42,20.87c-6.49,15.46-13.41,30.73-19.95,46.16c-3.38,8.22-5.31,16.89-7.37,25.52
			c-1.12-4.05-2.66-7.99-4.44-11.79c-1.62-3.45-3.78-6.65-6.37-9.44c-2.37-2.49-5.1-4.58-7.67-6.85
			c-5.09-4.53-10.38-8.82-16.25-12.31c-5.61-3.68-7.18-5.16-12.93-10.15c-4.7-4.32-9.59-8.43-14.41-12.61
			c-4.24-3.71-8.36-7.63-13.2-10.57c-7.72-4.33-15.5-8.58-22.89-13.48c-3.1-2.1-4.42-3.47-8.93-6.67
			c-8.87-5.9-13.55-9.4-21.37-17.48c-11.36-11.27-21.26-21.69-28.45-33.45c-5.12-9.77-8.59-21.25-8.09-33.77
			c0.23-11.02,8.5-22.67,15.77-33.32c-7.88,8.32-16.07,16.97-20,27.95c-1.82,6.59-2.13,13.57-1.51,20.36
			c0.91,9.13,3.75,18.22,8.72,25.96c7.88,11.51,17.3,21.83,27.24,31.57c6.93,7.43,14.89,13.7,23.38,19.24
			c4.45,3.26,9.04,7.17,15.88,11.06c5.9,3.7,12.22,6.68,18.09,10.41c2.46,1.7,4.17,3.26,7.95,6.64
			c10.51,8.8,20.95,20.18,29.79,25.76c3.03,1.9,6.18,3.61,9.11,5.67c3.38,2.5,6.74,5.01,10.36,7.16
			c7.88,5.21,10.36,8.85,15.69,18.54c1.29,2.52,2.3,4.65,3.19,6.98c-0.35,1.36-0.7,2.71-1.08,4.06c-1.8,6.88-3.82,13.71-5.4,20.65
			c-0.41,2-0.88,3.98-1.39,5.94c-1.35-1.99-2.7-3.98-4.08-5.95c-12.28-17.56-26.14-34.03-41.33-49.14
			c-7.23-7.12-14.93-13.85-23.47-19.38c-10.26-6.2-21.22-11.1-31.68-16.93c-7.75-4.4-15.92-8.04-23.47-12.8
			c-9.18-5.85-13.96-10.13-22.88-18.83c-5.52-5.59-11.19-11.08-16.2-17.13c-7.11-9.87-9.9-15.84-12.91-26.71
			c-3.7-14.28-4.31-27.64-2.9-44.69c0.58-9.81,2.8-19.91,7.17-31.64c1.68-3.93,3.61-7.75,5.74-11.46c2.88-4.99,6.1-9.79,9.65-14.33
			c10.19-12.63,30.04-20.01,50.44-19.2c9.08,0.63,13.76,0.73,22.05,2.88c3.84,1.12,9.81,4.48,13.43,8.11
			c4.78,4.72,8.23,10.66,12.43,16.43c-3.07-6.33-5.73-12.95-9.92-18.65c-2.51-3.45-5.23-5.73-9.23-8.54
			c-5.85-3.94-12.91-5.31-19.73-6.63c-7.92-1.48-16.04-2.26-24.04-0.92c-12.94,1.62-25.64,6.37-35.74,14.74
			c-6.92,5.96-12.06,13.69-16.83,21.4c-9.14,14.91-13.99,32.11-15.14,49.5c-2.4,26.58,1.06,55.67,18.24,77.09
			c4.52,5.61,9.66,10.69,14.67,15.87c7.39,7.58,15.3,14.68,24.11,20.58c5.6,3.83,11.63,6.94,17.65,10.05
			c5.78,3.11,11.47,6.36,17.28,9.41c9.57,5.12,19.55,9.63,28.25,16.19c10.84,7.89,31.38,29.65,42.96,44.46
			c3.17,4.1,8.61,11.03,13.59,18.45c2.42,3.61,4.97,7.15,7.2,10.88c0.02,0.06,0.03,0.13,0.04,0.19c0.02,0.44,0,0.87-0.04,1.31
			c-0.07,0.39-0.15,0.77-0.26,1.15c0.01,0,0.01,0,0.02,0.01c-1.72,7.43,8.89,9.81,10.78,2.65c1.08-3.48,2.48-6.86,3.48-10.37
			c1.62-5.46,2.66-11.07,4.1-16.58c1.93-7.43,4.05-14.81,5.9-22.25c1.71-6.91,3.19-13.88,5.32-20.68
			c2.87-8.67,3.94-10.27,7.12-17.49c7.68-17.51,15.28-35.05,22.35-52.81c3.89-10.3,7-20.88,10.33-31.37
			c3.44-11.44,6.82-22.91,10.04-34.42c1.54-3.2,2.18-5.04,2.99-6.85c2.45-5.58,4.09-11.5,5.18-17.49c0.71-4.47,0.69-5.85,1.42-9.18
			c2.38-6.55,5.28-12.91,7.54-19.5c1.78-5.09,3.07-10.32,4.28-15.57c0.36-2.59,1.98-5.56,1.45-8.18
			C870.3,434.35,869.36,429.8,865.33,429.69z"/>
	</g>
	<path d="M627.03,523.91c0-0.23,0.02-0.46,0.05-0.68c-1.98,0.67-3.89,1.58-5.69,2.65c2.02-0.54,3.86-1.19,5.65-1.9
		C627.04,523.96,627.03,523.94,627.03,523.91z"/>
	<path class="st1" d="M637.71,515.44c-3.11,3.89-6.8,7.36-11.99,8.29c6.9,2.03,11.55-3.51,13.64-9.43c0.26-0.7,0.47-1.42,0.78-2.11
		C639.27,513.23,638.58,514.4,637.71,515.44z"/>
</g>
<path d="M920.4,409.01c-10.29,0.78-20.46,3.65-30.63,6.11c-11.95,3.01-23.9,6.28-35.56,11.53c-17.31,7.65-32.63,18.54-49.38,22.46
	c13.63,4.72,27.67,2.53,41.3-1.08c15.09-3.61,29.97-9.41,44.35-17.74c9.3-5.21,18.25-11.9,27.36-17.93
	c1.78-1.18,3.56-2.38,5.35-3.55C922.25,408.87,921.32,408.93,920.4,409.01z"/>
</svg>
